<svg width="26" height="25" viewBox="0 0 26 25" fill="none" xmlns="http://www.w3.org/2000/svg">
<g clip-path="url(#clip0_756_356)">
<path d="M7.74805 0.5C3.88905 0.5 0.75 3.64195 0.75 7.50195V17.502C0.75 21.361 3.89195 24.5 7.75195 24.5H17.752C21.611 24.5 24.75 21.358 24.75 17.498V7.49805C24.75 3.63905 21.608 0.5 17.748 0.5H7.74805ZM19.75 4.5C20.302 4.5 20.75 4.948 20.75 5.5C20.75 6.052 20.302 6.5 19.75 6.5C19.198 6.5 18.75 6.052 18.75 5.5C18.75 4.948 19.198 4.5 19.75 4.5ZM12.75 6.5C16.059 6.5 18.75 9.191 18.75 12.5C18.75 15.809 16.059 18.5 12.75 18.5C9.441 18.5 6.75 15.809 6.75 12.5C6.75 9.191 9.441 6.5 12.75 6.5ZM12.75 8.5C11.6891 8.5 10.6717 8.92143 9.92157 9.67157C9.17143 10.4217 8.75 11.4391 8.75 12.5C8.75 13.5609 9.17143 14.5783 9.92157 15.3284C10.6717 16.0786 11.6891 16.5 12.75 16.5C13.8109 16.5 14.8283 16.0786 15.5784 15.3284C16.3286 14.5783 16.75 13.5609 16.75 12.5C16.75 11.4391 16.3286 10.4217 15.5784 9.67157C14.8283 8.92143 13.8109 8.5 12.75 8.5Z" fill="white"/>
</g>
<defs>
<clipPath id="clip0_756_356">
<rect width="25" height="24" fill="white" transform="translate(0.5 0.5)"/>
</clipPath>
</defs>
</svg>
