<svg width="24" height="24" viewBox="0 0 24 24" fill="none" xmlns="http://www.w3.org/2000/svg">
<path d="M12 0C5.37277 0 0 5.37277 0 12C0 18.6272 5.37277 24 12 24C18.6272 24 24 18.6272 24 12C24 5.37277 18.6272 0 12 0ZM16.7645 17.0769C16.2018 15.3212 14.7997 13.9629 12.9452 13.7783V17.0769H12.6591C7.61354 17.0769 4.73538 13.6117 4.61538 7.84615H7.14323C7.22631 12.078 9.08954 13.8706 10.5655 14.2403V7.84615H12.9457V11.496C14.4032 11.3391 15.9346 9.67569 16.4511 7.84615H18.8312C18.4348 10.1008 16.7742 11.7637 15.5931 12.4477C16.7737 13.002 18.6651 14.4526 19.3846 17.0769H16.7645Z" fill="white"/>
</svg>
