<svg width="24" height="24" viewBox="0 0 24 24" fill="none" xmlns="http://www.w3.org/2000/svg">
<path fill-rule="evenodd" clip-rule="evenodd" d="M5.14286 0L6.85714 5.53846V9.23077H8V5.53846L9.71429 0H8.57143L7.42857 3.69231L6.28571 0H5.14286ZM11.4286 2.46154C10.8192 2.46154 10.5201 2.5649 10.1473 2.89423C9.79018 3.21875 9.69197 3.46875 9.71429 4.30769V7.38462C9.71429 7.9976 9.80804 8.40144 10.1518 8.75962C10.5089 9.11779 10.846 9.23077 11.4286 9.23077C12.0379 9.23077 12.3705 9.11779 12.7143 8.75962C13.0714 8.41587 13.1429 7.9976 13.1429 7.38462V4.30769C13.1429 3.76442 13.0536 3.25 12.7076 2.90625C12.3504 2.55289 11.9821 2.46154 11.4286 2.46154ZM14.2857 2.46154V8C14.2857 8.59856 14.846 9.23077 15.4286 9.23077C16.0112 9.23077 16.3192 8.91587 16.5714 8.61539V9.23077H17.7143V2.46154H16.5714V7.38462C16.5647 7.80529 16.1049 8 16 8C15.8817 8 15.4286 7.97356 15.4286 7.38462V2.46154H14.2857ZM11.4286 3.69231C11.6004 3.69231 12 3.6899 12 4.30769V7.38462C12 7.98077 11.6138 8 11.4286 8C11.2567 8 10.8571 7.99279 10.8571 7.38462V4.30769C10.8571 3.80529 11.1049 3.69231 11.4286 3.69231ZM3.42857 10.4615C1.375 10.4615 0 11.9279 0 14.1538V20C0 22.226 1.375 24 3.42857 24H20.5714C22.625 24 24 22.5337 24 20.3077V14.1538C24 11.9279 22.625 10.4615 20.5714 10.4615H3.42857ZM4.57143 12.9231H8V14.1538H6.85714V21.5385H5.71429V14.1538H4.57143V12.9231ZM12.5714 12.9231H13.7143V15.3846C13.846 15.1635 14.0424 14.988 14.2299 14.8894C14.4129 14.7885 14.5982 14.7308 14.7857 14.7308C15.1563 14.7308 15.4464 14.875 15.6451 15.1442C15.8438 15.4159 16 15.7764 16 16.3077V20C16 20.4567 15.8571 20.7404 15.6696 20.9832C15.4866 21.226 15.2121 21.5337 14.8571 21.5385C14.2567 21.5457 13.9353 21.1995 13.7143 20.9231V21.5385H12.5714V12.9231ZM8 14.7692H9.14286V19.6923C9.14286 19.8341 9.29688 20.3125 9.71429 20.3077C10.1786 20.3029 10.183 19.8365 10.2857 19.6923V14.7692H11.4286V21.5385H10.2857V20.9231C10.0737 21.1923 9.96429 21.2764 9.72545 21.4038C9.48884 21.5481 9.24777 21.5385 9.02455 21.5385C8.74777 21.5385 8.43304 21.2692 8.28572 21.0673C8.15402 20.8822 8 20.6923 8 20.3077V14.7692ZM18.3996 14.7692C18.942 14.7692 19.3237 14.8942 19.6116 15.2212C19.9062 15.5481 20 15.9303 20 16.5457V18.4615H17.7143V19.4135C17.7143 19.7572 17.7567 19.976 17.8393 20.1058C17.9174 20.2476 18.0759 20.3101 18.2857 20.3077C18.5179 20.3053 18.6652 20.2548 18.7433 20.1418C18.8237 20.0409 18.8571 19.7548 18.8571 19.3846V19.0769H20V19.4423C20 20.113 19.9509 20.613 19.6429 20.9399C19.3527 21.2837 18.8996 21.4423 18.3058 21.4423C17.7634 21.4423 17.3393 21.2692 17.0357 20.9135C16.7321 20.5577 16.5737 20.0697 16.5737 19.4423V16.5457C16.5737 15.988 16.7545 15.5745 17.0871 15.2067C17.3549 14.9111 17.8571 14.7692 18.3996 14.7692ZM14.2857 15.6923C13.971 15.6923 13.7188 15.9976 13.7143 16.3077V20C13.7188 20.1779 13.971 20.3077 14.2857 20.3077C14.6004 20.3077 14.8571 20.0457 14.8571 19.7067V16.6154C14.8571 16 14.6004 15.6923 14.2857 15.6923ZM18.2857 16C17.971 16 17.7188 16.2861 17.7143 16.6154V17.2308H18.8571V16.6154C18.8571 16.238 18.6004 16 18.2857 16Z" fill="white"/>
</svg>
