<svg width="127" height="90" viewBox="0 0 127 90" fill="none" xmlns="http://www.w3.org/2000/svg">
<g clip-path="url(#clip0_519_40)">
<path d="M127 88.0311C126.282 89.5205 125.105 90.0002 123.493 89.9967C83.5251 89.9752 43.5479 89.9692 3.56118 89.9788C0.87952 89.9788 0 89.1016 0 86.4272V15.1804C0 12.6277 0.854393 11.7685 3.41758 11.7577C5.63973 11.7577 7.86189 11.7577 10.1881 11.7577C10.1881 9.92108 10.2169 8.23837 10.1881 6.55566C10.1522 4.99468 10.8523 4.01726 12.3026 3.43727C22.8749 -0.794573 33.6302 -0.941356 44.5076 2.02308C50.9693 3.80366 57.0794 6.66949 62.5756 10.4975C63.2433 10.9558 63.6849 11.0274 64.3993 10.5369C72.5735 4.92307 81.5554 1.38937 91.4456 0.308143C99.2372 -0.607544 107.135 0.432372 114.421 3.33345C116.392 4.1211 116.805 4.76554 116.808 6.87788V11.7577H121.92C122.663 11.7577 123.41 11.79 124.15 11.7577C125.539 11.6933 126.329 12.5275 126.996 13.5693L127 88.0311ZM111.445 75.1029C111.474 74.7449 111.51 74.4942 111.51 74.2508C111.51 52.4447 111.516 30.6351 111.528 8.82195C111.528 8.07726 111.319 7.65838 110.576 7.50801C107.065 6.80986 103.583 5.71789 100.04 5.46011C87.9813 4.55789 77.165 8.25628 67.2389 14.9155C66.8782 15.129 66.5856 15.4401 66.395 15.8127C66.2043 16.1853 66.1235 16.6041 66.1619 17.0207C66.1858 38.2515 66.193 59.4835 66.1835 80.7167C66.1835 81.1463 66.2194 81.5759 66.2445 82.1488C80.3959 73.6708 95.2437 70.4486 111.445 75.1029ZM60.7807 82.1488C60.8094 81.7406 60.8417 81.4972 60.8417 81.2537C60.8417 59.7007 60.8309 38.1477 60.8094 16.5946C60.7871 16.3114 60.7029 16.0364 60.5627 15.789C60.4226 15.5416 60.2299 15.3278 59.9981 15.1625C56.2287 13.0466 52.5562 10.6658 48.5822 9.03318C38.2145 4.77628 27.5633 3.9564 16.7397 7.41133C15.8171 7.70849 15.4689 8.12738 15.4725 9.13701C15.5084 30.69 15.518 52.2419 15.5012 73.7925C15.5012 74.2257 15.5407 74.6589 15.5658 75.1315C31.7455 70.4486 46.5862 73.6708 60.7807 82.1488ZM5.34895 17.0708V84.5583H54.1034C53.9071 84.4097 53.7035 84.2711 53.4932 84.143C40.7562 77.8453 27.6997 75.9943 14.1263 81.3361C11.9328 82.1989 10.2348 81.021 10.1774 78.6473C10.1774 78.2893 10.1774 77.9062 10.1774 77.5374V17.0708H5.34895ZM121.637 84.6012V17.103H116.812V77.8883C116.812 78.3036 116.833 78.7153 116.812 79.1271C116.792 79.5413 116.675 79.9452 116.469 80.3056C116.264 80.6661 115.976 80.973 115.628 81.2012C115.281 81.4295 114.885 81.5727 114.472 81.6191C114.058 81.6656 113.64 81.614 113.251 81.4685C112.705 81.2931 112.174 81.0425 111.635 80.8456C99.8639 76.5815 88.3475 77.7379 77.0142 82.5104C75.6823 83.0725 74.3936 83.742 73.0833 84.3578L73.1802 84.6012H121.637Z" fill="#1D88E6"/>
<path d="M111.445 75.1027C95.2437 70.4484 80.3959 73.6706 66.2301 82.1486C66.205 81.5901 66.1691 81.1605 66.1691 80.7165C66.1691 59.4738 66.1619 38.2418 66.1476 17.0205C66.1092 16.604 66.19 16.1851 66.3806 15.8125C66.5712 15.4399 66.8638 15.1289 67.2245 14.9154C77.1506 8.25614 87.967 4.55775 100.025 5.45997C103.569 5.72491 107.051 6.80972 110.562 7.50787C111.305 7.65824 111.513 8.07712 111.513 8.82181C111.492 30.6326 111.486 52.4422 111.495 74.2506C111.51 74.5084 111.474 74.7447 111.445 75.1027Z" fill="white"/>
<path d="M60.7807 82.1483C46.5862 73.6703 31.7455 70.4481 15.5479 75.1203C15.5227 74.6477 15.4833 74.2145 15.4833 73.7813C15.4833 52.2331 15.4737 30.6812 15.4545 9.12583C15.4545 8.0983 15.8135 7.69373 16.7218 7.40015C27.5453 3.94522 38.1966 4.7651 48.5642 9.022C52.5382 10.6546 56.2107 13.0354 59.9801 15.1514C60.2119 15.3166 60.4046 15.5304 60.5448 15.7778C60.6849 16.0252 60.7691 16.3002 60.7914 16.5835C60.8345 38.1365 60.8453 59.6895 60.8237 81.2426C60.8309 81.4967 60.7986 81.7402 60.7807 82.1483Z" fill="white"/>
<path d="M5.34894 17.0708H10.1881V77.5374C10.1881 77.8954 10.1881 78.2785 10.1881 78.6473C10.2312 81.021 11.9292 82.1989 14.137 81.336C27.7104 75.9943 40.7669 77.8453 53.5039 84.143C53.7142 84.2711 53.9179 84.4097 54.1142 84.5583H5.34894V17.0708Z" fill="white"/>
<path d="M121.637 84.6013H73.173L73.076 84.3578C74.3864 83.742 75.6751 83.0725 77.007 82.5104C88.3403 77.7379 99.8567 76.5815 111.628 80.8456C112.17 81.0425 112.705 81.2931 113.243 81.4686C113.633 81.614 114.051 81.6656 114.465 81.6192C114.878 81.5727 115.274 81.4295 115.621 81.2012C115.968 80.973 116.257 80.6661 116.462 80.3056C116.668 79.9452 116.785 79.5413 116.805 79.1271C116.841 78.7153 116.805 78.3036 116.805 77.8883V17.103H121.629L121.637 84.6013Z" fill="white"/>
</g>
<defs>
<clipPath id="clip0_519_40">
<rect width="127" height="90" fill="white"/>
</clipPath>
</defs>
</svg>
