<svg width="108" height="125" viewBox="0 0 108 125" fill="none" xmlns="http://www.w3.org/2000/svg">
<path d="M43.9375 1.1875C38.5625 3.625 35.875 7.8125 35.875 13.75C35.875 19.375 38.3125 23.4375 43.3125 26.125C45.8125 27.5 52.6875 27.5 55.1875 26.125C59.75 23.6875 62.9375 18.625 63 13.9375C63.0625 4.1875 52.625 -2.8125 43.9375 1.1875ZM53.5 6.25C57.625 8.8125 59 13.3125 56.875 17.4375C52.9375 25.1875 41.8125 23.25 40.75 14.625C39.875 7.8125 47.6875 2.6875 53.5 6.25Z" fill="#1D88E6"/>
<path d="M5.1875 33.0625C2.4375 34.25 0.8125 36.8125 0.8125 40.0625C0.8125 42.6875 1.125 43.375 2.875 45.125L4.875 47.1875L20.1875 47.375L35.5 47.5625V83C35.5 117.25 35.5625 118.5 36.75 120.5C40.3125 126.375 48.1875 126.375 51.75 120.5C52.9375 118.562 53 117.312 53 100.438V82.5H77.25C100.312 82.5 101.562 82.4375 103.5 81.25C109.375 77.6875 109.375 69.8125 103.5 66.25C101.562 65.0625 100.312 65 83.5 65H65.5V56.25V47.5625L80.8125 47.375L96.125 47.1875L98.125 45.125C99.875 43.375 100.188 42.6875 100.188 40C100.188 37.3125 99.875 36.625 98.125 34.875L96.125 32.8125L51.25 32.6875C26.625 32.625 5.875 32.8125 5.1875 33.0625ZM95.125 38.875C95.625 39.6875 95.625 40.3125 95.125 41.0625C94.5 42.0625 92.875 42.1875 78.3125 42.375C67.6875 42.4375 61.875 42.75 61.3125 43.1875C60.1875 44.125 60.125 68.125 61.25 69.25C61.8125 69.8125 67.125 70 81.25 70C99.6875 70 100.562 70.0625 101.75 71.25C102.438 71.9375 103 73.0625 103 73.75C103 74.4375 102.438 75.5625 101.75 76.25C100.562 77.4375 99.6875 77.5 75 77.5C56 77.5 49.3125 77.6875 48.75 78.25C48.1875 78.8125 48 84.125 48 98.25C48 116.688 47.9375 117.562 46.75 118.75C46.0625 119.438 44.9375 120 44.25 120C43.5625 120 42.4375 119.438 41.75 118.75C40.5 117.5 40.5 116.688 40.5 80.75C40.5 53 40.3125 43.8125 39.75 43.25C39.1875 42.6875 34.625 42.5 23 42.5C6.5625 42.5 5.5 42.375 5.5 40C5.5 37.5 5.3125 37.5 50.6875 37.625C91.5625 37.8125 94.5 37.875 95.125 38.875Z" fill="#1D88E6"/>
</svg>
