<svg width="98" height="120" viewBox="0 0 98 120" fill="none" xmlns="http://www.w3.org/2000/svg">
<path d="M51.5231 4.08415C45.938 9.66932 46.0776 15.5337 51.6628 21.2585C54.0365 23.6322 55.8516 25.7267 55.5724 25.8663C55.2931 26.0059 50.6854 28.5192 45.1002 31.3118C29.8806 38.8518 28.2051 42.7614 34.2091 55.7469L37.6999 63.1473L21.9218 81.5783C1.25666 105.595 0 107.41 0 111.18C0 120.116 11.4496 123.048 18.0122 115.927L21.7821 111.738L24.854 115.927C28.3447 120.535 32.5336 121.233 37.281 118.022C38.9565 116.904 44.8209 108.108 50.2665 98.4734C55.712 88.9786 60.7387 80.7405 61.2972 80.3216C61.9953 80.0424 62.8331 87.4427 63.3916 96.7979C64.2294 111.319 64.7879 114.252 67.3012 116.904C71.2108 121.093 76.0979 120.954 80.566 116.486C84.0567 112.995 84.0567 112.436 83.2189 101.406L82.2415 89.9561L86.8493 88.6994C89.3626 87.8616 92.2948 85.6276 93.4119 83.6727C95.3667 80.182 95.0874 78.7857 90.8985 66.2191C88.3852 58.5395 85.0341 50.7203 83.6378 48.6258C82.1019 46.5314 80.9849 44.437 80.9849 44.1577C80.9849 43.7388 84.7549 41.5048 89.3626 39.1311L97.7404 34.9422V21.6774C97.7404 10.2278 97.3215 7.99377 94.9478 5.62007C90.4797 1.15195 86.57 2.12935 79.3093 9.94858L72.6071 17.0697V12.6015C72.6071 9.52969 71.3505 6.87674 68.5579 4.08415C62.9727 -1.36138 57.1083 -1.36138 51.5231 4.08415ZM64.7879 7.85414C69.1164 12.043 66.0446 19.583 60.0405 19.583C56.6894 19.583 53.0591 15.9526 53.0591 12.6015C53.0591 9.25043 56.6894 5.62007 60.0405 5.62007C61.4368 5.62007 63.6709 6.59748 64.7879 7.85414ZM91.7363 10.6467C92.8533 13.8582 78.1923 27.5418 68.2786 32.7081C53.3383 40.3877 53.1987 40.5274 56.9687 48.3466C59.7613 53.9317 60.599 54.6299 63.5312 53.9317C66.6031 53.094 67.022 53.5129 67.022 56.864C66.8823 62.4491 62.4142 71.6646 58.0857 75.1554C52.6402 79.3442 45.2398 81.4387 38.8169 80.6009C35.745 80.182 32.9525 79.4839 32.5336 79.065C32.1147 78.7857 34.3488 75.295 37.5602 71.525C40.7717 67.8947 43.285 63.985 43.285 63.1473C43.285 62.1699 41.6095 58.1206 39.6547 54.211C37.5602 50.1618 36.4432 45.9729 36.8621 44.1577C37.4206 42.0633 42.5869 38.7122 55.8516 32.1496C69.6749 25.3078 75.679 21.3982 81.2641 15.813C88.2456 8.83154 90.7589 7.57488 91.7363 10.6467ZM92.1552 26.5644C92.1552 32.01 91.8759 32.2892 83.7775 36.3385C79.1697 38.7122 75.3997 41.5048 75.3997 42.4822C75.3997 44.8559 66.4634 48.0673 63.5312 46.9503C59.2027 45.4144 61.8557 42.4822 72.4675 36.6177C78.8904 33.2666 85.0341 28.6589 87.1286 25.8663C89.223 23.2133 91.1778 20.9793 91.5967 20.9793C91.8759 20.9793 92.1552 23.4926 92.1552 26.5644ZM79.1697 51.9769C81.8226 55.4677 89.6419 79.6235 88.8041 81.7179C88.3852 83.1142 86.7097 83.8124 85.0341 83.5331C82.5208 83.2539 80.9849 80.4613 77.0753 69.0117C74.2827 61.3321 72.4675 53.9317 73.026 52.6751C74.1431 49.8825 77.2149 49.6032 79.1697 51.9769ZM73.8638 77.1102C75.8186 82.9746 76.796 90.5146 77.0753 99.8697C77.4941 113.414 77.3545 113.833 74.2827 114.252C72.6071 114.531 70.9316 113.833 70.5127 112.855C69.1164 108.946 67.5805 73.2006 68.6975 70.8269C69.3957 69.5702 70.0938 68.4532 70.5127 68.4532C70.792 68.4532 72.3279 72.3628 73.8638 77.1102ZM31.8354 84.6501C36.1639 85.9068 35.4658 87.1635 22.7595 101.964C14.8007 111.18 11.1703 114.531 9.07589 114.252C3.76999 113.414 5.44553 109.365 16.3366 96.5186C22.3407 89.5372 27.5069 83.8124 27.9258 83.8124C28.3447 83.8124 30.0203 84.2313 31.8354 84.6501ZM43.0058 99.8697C37.0017 110.342 33.7902 114.531 31.8354 114.531C27.6466 114.531 27.3673 110.761 30.858 103.919C37.0017 92.3298 43.8435 85.6276 49.8476 85.3483C50.825 85.2087 47.7532 91.7712 43.0058 99.8697Z" fill="#1D88E6"/>
<path d="M26.3898 12.4619C20.9443 18.0471 20.9443 23.9115 26.3898 29.4967C29.1824 32.2892 31.8354 33.5459 34.9072 33.5459C40.9112 33.5459 47.4738 26.9833 47.4738 20.9793C47.4738 17.9074 46.2171 15.2545 43.4246 12.4619C37.8394 7.01637 31.975 7.01637 26.3898 12.4619ZM39.6546 16.2319C43.9831 20.4208 40.9112 27.9607 34.9072 27.9607C31.5561 27.9607 27.9257 24.3304 27.9257 20.9793C27.9257 17.6282 31.5561 13.9978 34.9072 13.9978C36.3035 13.9978 38.5375 14.9752 39.6546 16.2319Z" fill="#1D88E6"/>
</svg>
