<svg width="105" height="120" viewBox="0 0 105 120" fill="none" xmlns="http://www.w3.org/2000/svg">
<path d="M37.4847 0.624084C36.9677 1.14111 36.5799 2.82146 36.5799 4.37256C36.5799 8.63807 31.6681 12.2573 21.7153 15.2302C10.8577 18.4617 7.10918 20.7883 4.91179 26.2171C3.87773 28.673 2.58516 41.7281 1.55109 59.0486L0 87.6146L7.36769 102.867C14.8646 118.766 17.5791 122.256 19.7764 118.766C20.4227 117.732 21.069 115.534 21.069 113.854C21.069 112.303 23.5249 106.228 26.3686 100.411C31.2804 90.5875 31.6681 89.1657 31.0219 81.9272C30.2463 73.267 24.8175 53.4905 22.4908 51.1639C20.1642 48.8372 18.2253 51.8102 19.5179 55.5586C20.4227 57.756 19.9057 62.28 17.7083 70.9403L14.7354 83.2198L17.9668 90.9753L21.1983 98.7307L18.7424 103.901L16.1572 108.942L10.7284 98.0844L5.17031 87.0975L6.7214 59.3071C7.62621 44.0547 8.78953 29.9656 9.56507 28.156C10.9869 24.4075 16.545 21.5638 26.6271 19.1079C35.2874 17.0398 42.0088 10.5769 41.4917 4.88959C41.104 0.753342 39.2944 -1.05627 37.4847 0.624084ZM25.8516 81.6687C26.6271 91.2338 24.6882 94.2067 21.9738 87.4853C20.6812 84.3831 20.552 81.6687 21.4568 77.0154C23.1371 68.8722 25.076 70.8111 25.8516 81.6687Z" fill="#1D88E6"/>
<path d="M63.3364 0.624084C62.8194 1.14111 62.4316 3.3385 62.4316 5.40662C62.4316 10.7062 69.5408 17.1691 77.5548 19.1079C87.6369 21.5638 93.195 24.4075 94.6168 28.156C95.3924 29.9656 96.5557 44.0547 97.4605 59.3071L99.0116 87.0975L93.4535 98.0844L88.0247 108.942L85.4395 103.901L82.9836 98.7307L86.2151 90.9753L89.4465 83.2198L86.4736 70.9403C84.2762 62.28 83.7592 57.756 84.664 55.5586C85.9566 51.8102 84.0177 48.8372 81.691 51.1639C79.3644 53.4905 73.9356 73.267 73.16 81.9272C72.5137 89.1657 72.9015 90.5875 77.8133 100.411C80.657 106.228 83.1129 112.303 83.1129 113.854C83.1129 115.534 83.7592 117.732 84.4055 118.766C86.6028 122.256 89.3173 118.766 96.8142 102.867L104.182 87.6146L102.631 59.0486C101.597 41.7281 100.304 28.673 99.2701 26.2171C97.0727 20.7883 93.3242 18.4617 82.4666 15.2302C72.3845 12.2573 67.9897 8.89658 67.3434 3.98479C66.9557 0.624084 65.0168 -0.92701 63.3364 0.624084ZM82.5958 86.5805C81.8203 88.3901 80.657 90.0705 79.8814 90.0705C78.3303 90.329 78.2011 76.4984 79.7522 72.8792C81.691 68.6137 84.4055 82.1857 82.5958 86.5805Z" fill="#1D88E6"/>
</svg>
