<svg width="26" height="23" viewBox="0 0 26 23" fill="none" xmlns="http://www.w3.org/2000/svg">
<g clip-path="url(#clip0_756_356)">
<path d="M7.74805 0C3.88905 0 0.75 3.01104 0.75 6.71021V16.2935C0.75 19.9917 3.89195 23 7.75195 23H17.752C21.611 23 24.75 19.989 24.75 16.2898V6.70646C24.75 3.00825 21.608 0 17.748 0H7.74805ZM19.75 3.83333C20.302 3.83333 20.75 4.26267 20.75 4.79167C20.75 5.32067 20.302 5.75 19.75 5.75C19.198 5.75 18.75 5.32067 18.75 4.79167C18.75 4.26267 19.198 3.83333 19.75 3.83333ZM12.75 5.75C16.059 5.75 18.75 8.32887 18.75 11.5C18.75 14.6711 16.059 17.25 12.75 17.25C9.441 17.25 6.75 14.6711 6.75 11.5C6.75 8.32887 9.441 5.75 12.75 5.75ZM12.75 7.66667C11.6891 7.66667 10.6717 8.07053 9.92157 8.78942C9.17143 9.50831 8.75 10.4833 8.75 11.5C8.75 12.5167 9.17143 13.4917 9.92157 14.2106C10.6717 14.9295 11.6891 15.3333 12.75 15.3333C13.8109 15.3333 14.8283 14.9295 15.5784 14.2106C16.3286 13.4917 16.75 12.5167 16.75 11.5C16.75 10.4833 16.3286 9.50831 15.5784 8.78942C14.8283 8.07053 13.8109 7.66667 12.75 7.66667Z" fill="black"/>
</g>
<defs>
<clipPath id="clip0_756_356">
<rect width="25" height="23" fill="white" transform="translate(0.5)"/>
</clipPath>
</defs>
</svg>
