<svg width="85" height="120" viewBox="0 0 85 120" fill="none" xmlns="http://www.w3.org/2000/svg">
<path d="M12.0933 1.68637C0.53185 8.10425 5.4488 26.5557 18.605 26.5557C25.3824 26.5557 31.894 20.0041 31.894 13.3188C31.894 3.29084 20.8641 -3.26074 12.0933 1.68637ZM25.2495 9.44131C26.9771 12.784 26.9771 13.5862 25.2495 16.7951C22.4588 21.876 15.8143 22.6782 12.7578 18.2659C9.96708 14.3884 10.1 10.6447 12.8907 7.56943C16.2129 3.82567 22.5917 4.89531 25.2495 9.44131Z" fill="#1D88E6"/>
<path d="M25.6479 30.5673C24.0532 31.2358 21.794 33.6425 20.598 35.9155C17.8073 41.2637 16.6113 56.2388 18.3389 63.5926L19.6678 69.342H12.7575C7.17609 69.342 5.18273 70.0105 2.92359 72.4172C0.132891 75.3587 0 76.8295 0 94.8798C0 113.465 0.132891 114.401 3.05648 117.209C7.0432 120.952 12.093 120.952 15.6811 117.075C18.206 114.267 18.6047 112.529 18.6047 101.03V88.0608H22.4585C25.7808 88.0608 27.2426 89.5316 33.8871 99.4258C38.0067 105.71 42.6579 111.727 44.2525 112.796C45.8472 113.732 53.8207 115.872 62.0599 117.61C76.0134 120.284 77.2094 120.418 80.3988 118.278C83.8539 116.005 85.8473 110.791 84.6513 107.582C83.3224 104.105 78.0067 101.565 66.4453 99.0247L55.1496 96.618L50.7642 88.7293C45.5815 79.3699 45.8472 75.8936 52.0931 74.0217C55.9469 72.8183 57.01 71.3476 61.5283 60.9185C68.5715 44.7401 68.3057 44.0716 51.5615 35.9155C38.0067 29.2302 32.0266 28.0269 25.6479 30.5673ZM48.9037 40.5952C55.6811 43.8041 61.1296 47.1468 61.1296 47.8153C61.1296 50.6231 51.9602 69.342 50.4984 69.342C47.5748 69.342 47.8406 65.7319 51.1629 58.1107C53.0233 53.9658 54.2193 49.9546 53.8207 49.2861C53.422 48.6176 50.3655 47.1468 47.0433 45.8097C41.8605 43.8041 40.7974 43.8041 39.7343 45.4086C38.0067 48.0827 38.2725 53.9658 40.5316 64.6623C41.5947 69.7431 42.1263 75.7598 41.7276 78.0328C41.1961 81.1081 42.2592 84.317 46.113 91.4034C51.1629 100.495 51.4286 100.763 58.4718 102.635C78.1396 107.448 79.7343 108.117 79.7343 110.924C79.7343 115.069 77.0765 115.203 61.2625 111.994L46.6446 109.053L38.6711 96.8854C34.2858 90.2001 29.5017 82.044 28.0399 78.7014C22.3256 65.4645 21.2625 45.0075 25.9137 37.7874C28.9701 32.974 34.9502 33.6425 48.9037 40.5952ZM47.0433 55.1691C46.3788 56.9073 45.8472 57.041 45.1828 55.8377C43.721 53.6984 45.1828 50.0883 46.7775 51.6928C47.4419 52.3613 47.5748 53.9658 47.0433 55.1691ZM22.1927 78.5677C23.6545 82.4451 23.5216 82.5788 18.7376 82.98L13.9535 83.3811L13.2891 98.7573C12.6246 114.133 12.6246 114.133 9.30234 114.133H5.98007L5.5814 96.2168C5.44851 86.3226 5.5814 77.3643 5.84718 76.4284C6.37875 75.3587 9.03656 74.6902 13.5548 74.6902C20.1994 74.6902 20.7309 74.9576 22.1927 78.5677Z" fill="#1D88E6"/>
</svg>
