<svg width="111" height="110" viewBox="0 0 111 110" fill="none" xmlns="http://www.w3.org/2000/svg">
<g clip-path="url(#clip0_802_164)">
<path d="M84.9021 89.6435L74.6622 78.7301H100.489V104.337L93.0803 97.698C83.8712 101.574 75.4456 106.618 66.3603 108.694C35.0495 115.663 5.96548 94.9491 0.673713 62.7449C-4.20571 33.0698 18.2259 4.26054 49.2068 0.439475C79.1293 -3.24414 107.224 19.5723 110.206 49.9209C110.282 50.53 110.259 51.1473 110.138 51.749C110.043 52.2258 109.886 52.688 109.67 53.1235C109.27 53.9211 108.65 54.5874 107.883 55.0437C107.116 55.5 106.234 55.7271 105.342 55.6982C104.45 55.6693 103.585 55.3856 102.849 54.8806C102.113 54.3756 101.538 53.6705 101.19 52.8486V52.7661C99.9665 49.4124 100.255 45.5226 99.2655 42.0314C96.3951 32.6028 90.571 24.3462 82.6519 18.4791C74.7327 12.6119 65.1377 9.44481 55.282 9.44481C45.4262 9.44481 35.8313 12.6119 27.9121 18.4791C19.993 24.3462 14.1688 32.6028 11.2985 42.0314C8.44358 51.506 8.74493 61.6518 12.157 70.9403C15.5691 80.2288 21.9071 88.157 30.2163 93.5305C38.5256 98.9041 48.356 101.432 58.2267 100.733C68.0974 100.035 77.4738 96.1476 84.9434 89.6573L84.9021 89.6435Z" fill="#1D88E6"/>
<path d="M55.2678 50.6631C64.3256 50.6631 72.3252 50.6631 80.3247 50.6631C83.651 50.6631 86.7985 51.0893 86.7985 55.3639C86.7985 55.3639 86.9085 59.3912 80.4209 59.3912C71.2394 59.3912 62.0578 59.4874 52.9312 59.6248C48.3542 59.6248 46.0588 57.7692 46.0588 53.1647C46.0588 43.777 45.7701 34.3618 46.2649 25.0015C46.3992 24.0368 46.8151 23.1331 47.4607 22.4037C47.8558 21.9047 48.3611 21.5039 48.9369 21.2328C49.5127 20.9616 50.1436 20.8274 50.7799 20.8407C51.4163 20.8541 52.0409 21.0145 52.6049 21.3095C53.1689 21.6045 53.6569 22.0261 54.0308 22.5412C54.6324 23.2719 55.0137 24.1585 55.1304 25.0978C55.5977 33.2759 55.2678 41.5091 55.2678 50.6631Z" fill="#1D88E6"/>
</g>
<defs>
<clipPath id="clip0_802_164">
<rect width="110.247" height="110" fill="white"/>
</clipPath>
</defs>
</svg>
