<svg width="111" height="105" viewBox="0 0 111 105" fill="none" xmlns="http://www.w3.org/2000/svg">
<path d="M49.875 1.12494C48.5 1.74994 46 3.74994 44.25 5.62494C39.875 10.2499 39.875 19.6249 44 24.1249L47 27.2499L40.125 29.2499C30 32.1249 27.5 34.7499 22.5 47.7499C18.5 58.1249 17.125 59.9999 9.25 67.3749C3.5 72.8749 0.5 76.6249 0.5 78.4999C0.5 82.1249 4.75 86.2499 8.5 86.2499C11.875 86.2499 27.5 74.6249 31.625 69.1249L34.125 65.6249L34.25 69.4999C34.25 72.9999 33.25 74.1249 24 80.1249C13.125 87.2499 10.75 90.6249 12.25 96.7499C12.75 98.6249 14.875 101.25 17.125 102.625C20.875 105 23 105 56.375 104.75C89.875 104.375 91.75 104.25 95.125 101.75C99.25 98.6249 100.25 93.6249 97.5 89.3749C96.5 87.7499 91.375 83.4999 86.125 79.9999C77.75 74.1249 76.75 72.9999 76.75 69.4999L76.875 65.6249L79.375 69.1249C83.5 74.6249 99.125 86.2499 102.5 86.2499C106.25 86.2499 110.5 82.1249 110.5 78.4999C110.5 76.6249 107.5 72.8749 101.75 67.3749C93.875 59.9999 92.5 58.1249 88.5 47.7499C83.5 34.7499 81 32.1249 70.875 29.2499L64 27.2499L67 24.1249C69.25 21.7499 69.875 19.6249 69.875 14.8749C69.875 9.74994 69.25 8.24994 66 4.87494C61.875 0.749939 54.5 -0.875061 49.875 1.12494ZM62.375 8.12494C68.625 14.2499 64.25 24.9999 55.5 24.9999C50.375 24.9999 45.5 20.1249 45.5 14.9999C45.5 9.87494 50.375 4.99994 55.5 4.99994C57.875 4.99994 60.5 6.12494 62.375 8.12494ZM70.25 34.6249C79.125 36.7499 79 36.7499 85.375 53.1249C88.75 62.1249 90 63.8749 97.375 69.9999C105.25 76.6249 107 80.1249 102.875 80.9999C99.75 81.6249 84 67.3749 80.25 60.6249C73.5 47.9999 71.75 48.6249 71.75 63.6249C71.75 76.1249 72 76.4999 86.5 86.1249C92.375 90.1249 94.25 92.1249 94.25 94.2499C94.25 98.8749 88.875 99.9999 65.5 99.9999C46.625 99.9999 44.25 99.7499 41.625 97.6249C38.875 95.3749 38.75 94.9999 40.625 93.1249C41.75 91.9999 48.125 90.1249 56.125 88.6249C70 86.2499 73.25 84.7499 71 82.4999C69.625 81.1249 46.75 84.7499 40.25 87.3749C36.25 88.8749 33.75 92.9999 34.625 96.9999C35.125 99.8749 34.875 99.9999 28.75 99.9999C21.125 99.9999 16.375 97.2499 17 93.3749C17.25 91.6249 20.25 88.7499 25.375 85.3749C39.375 76.1249 39.375 76.2499 39 63.1249C38.5 49.4999 37 48.6249 31.375 59.3749C27.125 67.3749 11.75 81.6249 8.125 80.9999C3.875 80.1249 5.75 76.4999 13.625 69.9999C21 63.8749 22.125 62.2499 25.625 53.2499C32 36.7499 31.875 36.7499 40.75 34.4999C54.25 31.1249 56.375 31.1249 70.25 34.6249Z" fill="#1D88E6"/>
</svg>
