<svg width="23" height="23" viewBox="0 0 23 23" fill="none" xmlns="http://www.w3.org/2000/svg">
<path d="M11.5 0C5.1489 0 0 5.1489 0 11.5C0 17.8511 5.1489 23 11.5 23C17.8511 23 23 17.8511 23 11.5C23 5.1489 17.8511 0 11.5 0ZM16.0659 16.3654C15.5268 14.6828 14.183 13.3811 12.4058 13.2042V16.3654H12.1316C7.29631 16.3654 4.53808 13.0445 4.42308 7.51923H6.8456C6.92521 11.5747 8.71081 13.2927 10.1253 13.647V7.51923H12.4063V11.017C13.8031 10.8666 15.2707 9.27254 15.7656 7.51923H18.0466C17.6667 9.6799 16.0752 11.2735 14.9434 11.929C16.0748 12.4602 17.8874 13.8504 18.5769 16.3654H16.0659Z" fill="#1D88E6"/>
</svg>
