<svg id="Layer_1" data-name="Layer 1" xmlns="http://www.w3.org/2000/svg" viewBox="0 0 23 23"><defs><style>.cls-1{fill:#f1f1f1;}</style></defs><rect class="cls-1" x="4.42" y="7.52" width="14.15" height="8.85"/><rect></rect><path d="M11.5,0A11.5,11.5,0,1,0,23,11.5,11.5,11.5,0,0,0,11.5,0Zm4.57,16.37a4.38,4.38,0,0,0-3.66-3.17v3.17h-.28C7.3,16.37,4.54,13,4.42,7.52H6.85c.08,4.05,1.86,5.77,3.28,6.13V7.52h2.28V11c1.39-.15,2.86-1.75,3.36-3.5h2.28a6.74,6.74,0,0,1-3.11,4.41,7,7,0,0,1,3.64,4.44Z" fill="black"/></svg>