<svg width="24" height="23" viewBox="0 0 24 23" fill="none" xmlns="http://www.w3.org/2000/svg">
<path fill-rule="evenodd" clip-rule="evenodd" d="M5.14286 0L6.85714 5.30769V8.84615H8V5.30769L9.71429 0H8.57143L7.42857 3.53846L6.28571 0H5.14286ZM11.4286 2.35897C10.8192 2.35897 10.5201 2.45803 10.1473 2.77364C9.79018 3.08464 9.69197 3.32422 9.71429 4.12821V7.07692C9.71429 7.66436 9.80804 8.05138 10.1518 8.39463C10.5089 8.73788 10.846 8.84615 11.4286 8.84615C12.0379 8.84615 12.3705 8.73788 12.7143 8.39463C13.0714 8.0652 13.1429 7.66436 13.1429 7.07692V4.12821C13.1429 3.60757 13.0536 3.11458 12.7076 2.78516C12.3504 2.44652 11.9821 2.35897 11.4286 2.35897ZM14.2857 2.35897V7.66667C14.2857 8.24028 14.846 8.84615 15.4286 8.84615C16.0112 8.84615 16.3192 8.54437 16.5714 8.25641V8.84615H17.7143V2.35897H16.5714V7.07692C16.5647 7.48007 16.1049 7.66667 16 7.66667C15.8817 7.66667 15.4286 7.64133 15.4286 7.07692V2.35897H14.2857ZM11.4286 3.53846C11.6004 3.53846 12 3.53616 12 4.12821V7.07692C12 7.64824 11.6138 7.66667 11.4286 7.66667C11.2567 7.66667 10.8571 7.65976 10.8571 7.07692V4.12821C10.8571 3.64673 11.1049 3.53846 11.4286 3.53846ZM3.42857 10.0256C1.375 10.0256 0 11.4309 0 13.5641V19.1667C0 21.2999 1.375 23 3.42857 23H20.5714C22.625 23 24 21.5948 24 19.4615V13.5641C24 11.4309 22.625 10.0256 20.5714 10.0256H3.42857ZM4.57143 12.3846H8V13.5641H6.85714V20.641H5.71429V13.5641H4.57143V12.3846ZM12.5714 12.3846H13.7143V14.7436C13.846 14.5317 14.0424 14.3635 14.2299 14.269C14.4129 14.1723 14.5982 14.117 14.7857 14.117C15.1563 14.117 15.4464 14.2552 15.6451 14.5132C15.8438 14.7735 16 15.1191 16 15.6282V19.1667C16 19.6044 15.8571 19.8762 15.6696 20.1089C15.4866 20.3415 15.2121 20.6364 14.8571 20.641C14.2567 20.6479 13.9353 20.3162 13.7143 20.0513V20.641H12.5714V12.3846ZM8 14.1538H9.14286V18.8718C9.14286 19.0077 9.29688 19.4661 9.71429 19.4615C10.1786 19.4569 10.183 19.01 10.2857 18.8718V14.1538H11.4286V20.641H10.2857V20.0513C10.0737 20.3093 9.96429 20.3899 9.72545 20.512C9.48884 20.6502 9.24777 20.641 9.02455 20.641C8.74777 20.641 8.43304 20.383 8.28572 20.1895C8.15402 20.0121 8 19.8301 8 19.4615V14.1538ZM18.3996 14.1538C18.942 14.1538 19.3237 14.2736 19.6116 14.5869C19.9062 14.9002 20 15.2665 20 15.8563V17.6923H17.7143V18.6046C17.7143 18.934 17.7567 19.1436 17.8393 19.268C17.9174 19.4039 18.0759 19.4638 18.2857 19.4615C18.5179 19.4592 18.6652 19.4109 18.7433 19.3026C18.8237 19.2058 18.8571 18.9317 18.8571 18.5769V18.2821H20V18.6322C20 19.2749 19.9509 19.7541 19.6429 20.0674C19.3527 20.3968 18.8996 20.5489 18.3058 20.5489C17.7634 20.5489 17.3393 20.383 17.0357 20.0421C16.7321 19.7011 16.5737 19.2335 16.5737 18.6322V15.8563C16.5737 15.3218 16.7545 14.9256 17.0871 14.5731C17.3549 14.2898 17.8571 14.1538 18.3996 14.1538ZM14.2857 15.0385C13.971 15.0385 13.7188 15.331 13.7143 15.6282V19.1667C13.7188 19.3371 13.971 19.4615 14.2857 19.4615C14.6004 19.4615 14.8571 19.2104 14.8571 18.8856V15.9231C14.8571 15.3333 14.6004 15.0385 14.2857 15.0385ZM18.2857 15.3333C17.971 15.3333 17.7188 15.6075 17.7143 15.9231V16.5128H18.8571V15.9231C18.8571 15.5614 18.6004 15.3333 18.2857 15.3333Z" fill="black"/>
</svg>
